<svg id="svg" version="1.1" xmlns="http://www.w3.org/2000/svg" viewBox="0 0 640 640" style="display: block;"><path d="M0,0 L640,0 L640,640 L0,640 Z " transform="translate(0,0)" style="fill: #0B0E10;"/><path d="M0,0 L116,0 L116,1 L117,1 L117,2 L120,2 L120,3 L122,3 L122,4 L124,4 L124,5 L125,5 L125,6 L127,6 L127,7 L128,7 L128,8 L129,8 L129,9 L130,9 L130,11 L131,11 L131,12 L132,12 L132,14 L133,14 L133,16 L134,16 L134,20 L135,20 L135,22 L137,22 L137,34 L135,34 L135,35 L134,35 L134,38 L133,38 L133,40 L132,40 L132,42 L131,42 L131,44 L130,44 L130,46 L129,46 L129,48 L128,48 L128,50 L127,50 L127,51 L126,51 L126,52 L125,52 L125,56 L124,56 L124,57 L123,57 L123,58 L122,58 L122,61 L121,61 L121,62 L120,62 L120,64 L119,64 L119,66 L118,66 L118,67 L117,67 L117,68 L116,68 L116,72 L114,72 L114,74 L113,74 L113,75 L112,75 L112,78 L111,78 L111,80 L110,80 L110,82 L109,82 L109,84 L108,84 L108,86 L106,86 L106,88 L105,88 L105,89 L104,89 L104,92 L103,92 L103,94 L102,94 L102,95 L101,95 L101,97 L100,97 L100,98 L99,98 L99,100 L98,100 L98,104 L97,104 L97,105 L96,105 L96,108 L95,108 L95,110 L93,110 L93,111 L92,111 L92,113 L91,113 L91,114 L90,114 L90,116 L89,116 L89,118 L88,118 L88,119 L87,119 L87,123 L86,123 L86,124 L85,124 L85,126 L84,126 L84,129 L83,129 L83,130 L82,130 L82,132 L81,132 L81,134 L79,134 L79,136 L78,136 L78,138 L77,138 L77,139 L76,139 L76,142 L75,142 L75,144 L74,144 L74,145 L73,145 L73,148 L72,148 L72,150 L71,150 L71,151 L70,151 L70,152 L69,152 L69,155 L68,155 L68,156 L67,156 L67,159 L66,159 L66,162 L65,162 L65,163 L64,163 L64,166 L62,166 L62,168 L61,168 L61,170 L60,170 L60,172 L58,172 L58,176 L57,176 L57,178 L56,178 L56,179 L55,179 L55,181 L54,181 L54,182 L53,182 L53,184 L52,184 L52,185 L51,185 L51,187 L50,187 L50,190 L48,190 L48,194 L47,194 L47,195 L46,195 L46,196 L45,196 L45,198 L44,198 L44,200 L42,200 L42,203 L41,203 L41,204 L40,204 L40,206 L39,206 L39,210 L38,210 L38,212 L36,212 L36,214 L35,214 L35,216 L34,216 L34,218 L33,218 L33,220 L32,220 L32,222 L31,222 L31,224 L29,224 L29,226 L28,226 L28,228 L27,228 L27,230 L26,230 L26,232 L25,232 L25,233 L24,233 L24,238 L22,238 L22,240 L21,240 L21,242 L20,242 L20,244 L19,244 L19,245 L18,245 L18,248 L17,248 L17,249 L16,249 L16,251 L15,251 L15,254 L14,254 L14,256 L12,256 L12,258 L11,258 L11,260 L10,260 L10,261 L9,261 L9,262 L8,262 L8,264 L7,264 L7,266 L6,266 L6,267 L5,267 L5,268 L4,268 L4,272 L3,272 L3,274 L2,274 L2,276 L1,276 L1,278 L0,278 L0,281 L-1,281 L-1,282 L-2,282 L-2,283 L-3,283 L-3,284 L-4,284 L-4,286 L-5,286 L-5,288 L-6,288 L-6,290 L-7,290 L-7,292 L-9,292 L-9,296 L-10,296 L-10,297 L-11,297 L-11,299 L-12,299 L-12,300 L-13,300 L-13,302 L-14,302 L-14,305 L-15,305 L-15,306 L-16,306 L-16,308 L-17,308 L-17,312 L-18,312 L-18,313 L-19,313 L-19,315 L-21,315 L-21,316 L-22,316 L-22,320 L-24,320 L-24,322 L-25,322 L-25,323 L-26,323 L-26,324 L-27,324 L-27,327 L-28,327 L-28,329 L-29,329 L-29,330 L-30,330 L-30,334 L-31,334 L-31,336 L-32,336 L-32,338 L-34,338 L-34,340 L-35,340 L-35,342 L-36,342 L-36,343 L-38,343 L-38,345 L-40,345 L-40,346 L-41,346 L-41,347 L-43,347 L-43,348 L-49,348 L-49,349 L-58,349 L-58,348 L-60,348 L-60,347 L-62,347 L-62,346 L-65,346 L-65,344 L-67,344 L-67,342 L-69,342 L-69,341 L-70,341 L-70,339 L-71,339 L-71,338 L-72,338 L-72,337 L-73,337 L-73,336 L-74,336 L-74,334 L-75,334 L-75,333 L-76,333 L-76,331 L-77,331 L-77,329 L-78,329 L-78,328 L-79,328 L-79,324 L-80,324 L-80,323 L-81,323 L-81,321 L-83,321 L-83,318 L-84,318 L-84,316 L-85,316 L-85,314 L-86,314 L-86,311 L-87,311 L-87,310 L-89,310 L-89,309 L-90,309 L-90,305 L-91,305 L-91,304 L-92,304 L-92,302 L-94,302 L-94,297 L-95,297 L-95,296 L-96,296 L-96,294 L-98,294 L-98,293 L-99,293 L-99,289 L-100,289 L-100,287 L-101,287 L-101,286 L-102,286 L-102,284 L-103,284 L-103,281 L-104,281 L-104,280 L-106,280 L-106,276 L-107,276 L-107,275 L-108,275 L-108,273 L-109,273 L-109,272 L-110,272 L-110,270 L-112,270 L-112,266 L-113,266 L-113,265 L-114,265 L-114,264 L-115,264 L-115,261 L-116,261 L-116,260 L-117,260 L-117,257 L-118,257 L-118,256 L-119,256 L-119,254 L-121,254 L-121,250 L-122,250 L-122,248 L-123,248 L-123,246 L-124,246 L-124,244 L-126,244 L-126,242 L-127,242 L-127,240 L-128,240 L-128,238 L-129,238 L-129,236 L-130,236 L-130,234 L-131,234 L-131,232 L-133,232 L-133,229 L-134,229 L-134,226 L-135,226 L-135,224 L-137,224 L-137,222 L-138,222 L-138,220 L-139,220 L-139,217 L-140,217 L-140,216 L-141,216 L-141,214 L-142,214 L-142,212 L-143,212 L-143,211 L-144,211 L-144,209 L-145,209 L-145,208 L-146,208 L-146,206 L-147,206 L-147,204 L-148,204 L-148,201 L-149,201 L-149,200 L-150,200 L-150,197 L-151,197 L-151,196 L-152,196 L-152,194 L-153,194 L-153,193 L-154,193 L-154,190 L-156,190 L-156,188 L-157,188 L-157,187 L-158,187 L-158,184 L-160,184 L-160,182 L-161,182 L-161,180 L-162,180 L-162,176 L-163,176 L-163,174 L-165,174 L-165,172 L-166,172 L-166,168 L-167,168 L-167,166 L-169,166 L-169,165 L-170,165 L-170,161 L-171,161 L-171,160 L-173,160 L-173,158 L-174,158 L-174,155 L-175,155 L-175,153 L-176,153 L-176,152 L-177,152 L-177,150 L-178,150 L-178,148 L-179,148 L-179,146 L-180,146 L-180,144 L-182,144 L-182,140 L-183,140 L-183,139 L-184,139 L-184,137 L-185,137 L-185,136 L-186,136 L-186,134 L-187,134 L-187,133 L-188,133 L-188,131 L-189,131 L-189,130 L-190,130 L-190,128 L-191,128 L-191,124 L-192,124 L-192,123 L-193,123 L-193,122 L-194,122 L-194,120 L-195,120 L-195,118 L-196,118 L-196,116 L-197,116 L-197,115 L-198,115 L-198,112 L-200,112 L-200,110 L-201,110 L-201,107 L-202,107 L-202,106 L-203,106 L-203,105 L-204,105 L-204,104 L-205,104 L-205,102 L-206,102 L-206,99 L-207,99 L-207,97 L-208,97 L-208,96 L-209,96 L-209,94 L-210,94 L-210,93 L-211,93 L-211,89 L-212,89 L-212,86 L-213,86 L-213,84 L-214,84 L-214,83 L-215,83 L-215,81 L-216,81 L-216,80 L-217,80 L-217,78 L-218,78 L-218,76 L-219,76 L-219,74 L-220,74 L-220,72 L-221,72 L-221,70 L-222,70 L-222,69 L-223,69 L-223,68 L-224,68 L-224,67 L-225,67 L-225,64 L-226,64 L-226,59 L-228,59 L-228,58 L-229,58 L-229,57 L-230,57 L-230,55 L-231,55 L-231,54 L-232,54 L-232,52 L-233,52 L-233,49 L-234,49 L-234,48 L-235,48 L-235,44 L-281,44 L-281,46 L-280,46 L-280,48 L-279,48 L-279,50 L-278,50 L-278,51 L-277,51 L-277,54 L-276,54 L-276,56 L-275,56 L-275,58 L-274,58 L-274,59 L-273,59 L-273,61 L-272,61 L-272,64 L-271,64 L-271,65 L-269,65 L-269,68 L-268,68 L-268,69 L-267,69 L-267,72 L-265,72 L-265,74 L-264,74 L-264,76 L-263,76 L-263,78 L-262,78 L-262,81 L-261,81 L-261,82 L-260,82 L-260,83 L-259,83 L-259,84 L-258,84 L-258,88 L-257,88 L-257,89 L-255,89 L-255,91 L-254,91 L-254,94 L-253,94 L-253,96 L-252,96 L-252,97 L-251,97 L-251,99 L-250,99 L-250,100 L-249,100 L-249,102 L-248,102 L-248,106 L-246,106 L-246,109 L-245,109 L-245,110 L-244,110 L-244,112 L-243,112 L-243,113 L-242,113 L-242,114 L-241,114 L-241,118 L-240,118 L-240,120 L-239,120 L-239,121 L-238,121 L-238,123 L-237,123 L-237,124 L-236,124 L-236,126 L-235,126 L-235,128 L-234,128 L-234,129 L-233,129 L-233,130 L-232,130 L-232,132 L-231,132 L-231,134 L-230,134 L-230,137 L-229,137 L-229,139 L-228,139 L-228,140 L-227,140 L-227,142 L-226,142 L-226,144 L-225,144 L-225,145 L-224,145 L-224,147 L-223,147 L-223,148 L-222,148 L-222,150 L-220,150 L-220,152 L-219,152 L-219,155 L-218,155 L-218,156 L-217,156 L-217,160 L-216,160 L-216,161 L-215,161 L-215,162 L-214,162 L-214,166 L-213,166 L-213,168 L-211,168 L-211,169 L-210,169 L-210,172 L-209,172 L-209,174 L-208,174 L-208,176 L-206,176 L-206,179 L-205,179 L-205,180 L-204,180 L-204,182 L-202,182 L-202,184 L-201,184 L-201,186 L-200,186 L-200,187 L-199,187 L-199,192 L-198,192 L-198,195 L-197,195 L-197,197 L-196,197 L-196,198 L-195,198 L-195,200 L-194,200 L-194,202 L-193,202 L-193,203 L-192,203 L-192,206 L-191,206 L-191,207 L-190,207 L-190,208 L-189,208 L-189,209 L-188,209 L-188,212 L-186,212 L-186,214 L-185,214 L-185,215 L-184,215 L-184,216 L-183,216 L-183,219 L-182,219 L-182,222 L-181,222 L-181,224 L-180,224 L-180,226 L-179,226 L-179,228 L-178,228 L-178,229 L-177,229 L-177,230 L-176,230 L-176,233 L-175,233 L-175,234 L-174,234 L-174,235 L-173,235 L-173,238 L-171,238 L-171,240 L-170,240 L-170,242 L-169,242 L-169,244 L-168,244 L-168,246 L-167,246 L-167,247 L-166,247 L-166,250 L-165,250 L-165,251 L-164,251 L-164,252 L-163,252 L-163,256 L-162,256 L-162,258 L-161,258 L-161,260 L-159,260 L-159,262 L-158,262 L-158,264 L-156,264 L-156,267 L-155,267 L-155,268 L-154,268 L-154,270 L-153,270 L-153,272 L-152,272 L-152,273 L-151,273 L-151,275 L-150,275 L-150,278 L-148,278 L-148,282 L-147,282 L-147,283 L-146,283 L-146,286 L-145,286 L-145,288 L-144,288 L-144,289 L-143,289 L-143,290 L-142,290 L-142,292 L-141,292 L-141,294 L-140,294 L-140,296 L-139,296 L-139,297 L-138,297 L-138,299 L-137,299 L-137,300 L-136,300 L-136,302 L-135,302 L-135,303 L-134,303 L-134,306 L-133,306 L-133,308 L-132,308 L-132,309 L-131,309 L-131,311 L-130,311 L-130,312 L-129,312 L-129,316 L-128,316 L-128,318 L-127,318 L-127,320 L-125,320 L-125,321 L-124,321 L-124,323 L-123,323 L-123,324 L-122,324 L-122,328 L-120,328 L-120,329 L-119,329 L-119,332 L-118,332 L-118,334 L-117,334 L-117,337 L-116,337 L-116,339 L-115,339 L-115,341 L-114,341 L-114,342 L-113,342 L-113,344 L-112,344 L-112,345 L-111,345 L-111,347 L-110,347 L-110,350 L-109,350 L-109,352 L-107,352 L-107,353 L-106,353 L-106,356 L-105,356 L-105,357 L-104,357 L-104,358 L-103,358 L-103,360 L-102,360 L-102,363 L-101,363 L-101,366 L-99,366 L-99,368 L-98,368 L-98,369 L-97,369 L-97,371 L-96,371 L-96,372 L-95,372 L-95,376 L-94,376 L-94,377 L-93,377 L-93,378 L-92,378 L-92,380 L-91,380 L-91,382 L-90,382 L-90,384 L-89,384 L-89,385 L-88,385 L-88,387 L-87,387 L-87,388 L-86,388 L-86,392 L-85,392 L-85,395 L-84,395 L-84,396 L-83,396 L-83,398 L-81,398 L-81,404 L-80,404 L-80,407 L-79,407 L-79,409 L-78,409 L-78,418 L-79,418 L-79,422 L-81,422 L-81,424 L-82,424 L-82,428 L-83,428 L-83,430 L-85,430 L-85,431 L-86,431 L-86,435 L-87,435 L-87,436 L-88,436 L-88,438 L-90,438 L-90,441 L-91,441 L-91,444 L-92,444 L-92,445 L-93,445 L-93,446 L-94,446 L-94,448 L-95,448 L-95,449 L-96,449 L-96,451 L-97,451 L-97,452 L-98,452 L-98,456 L-99,456 L-99,458 L-100,458 L-100,459 L-102,459 L-102,458 L-103,458 L-103,457 L-104,457 L-104,454 L-105,454 L-105,452 L-106,452 L-106,451 L-107,451 L-107,450 L-108,450 L-108,448 L-110,448 L-110,444 L-111,444 L-111,443 L-112,443 L-112,442 L-113,442 L-113,440 L-114,440 L-114,435 L-116,435 L-116,433 L-117,433 L-117,432 L-118,432 L-118,428 L-119,428 L-119,427 L-120,427 L-120,426 L-121,426 L-121,424 L-122,424 L-122,422 L-124,422 L-124,418 L-125,418 L-125,417 L-126,417 L-126,416 L-127,416 L-127,414 L-129,414 L-129,409 L-130,409 L-130,408 L-131,408 L-131,406 L-133,406 L-133,403 L-134,403 L-134,400 L-135,400 L-135,398 L-137,398 L-137,397 L-138,397 L-138,395 L-139,395 L-139,394 L-140,394 L-140,392 L-141,392 L-141,390 L-142,390 L-142,388 L-143,388 L-143,386 L-144,386 L-144,385 L-145,385 L-145,381 L-146,381 L-146,380 L-147,380 L-147,379 L-148,379 L-148,378 L-149,378 L-149,375 L-150,375 L-150,372 L-152,372 L-152,368 L-153,368 L-153,366 L-155,366 L-155,365 L-156,365 L-156,364 L-157,364 L-157,362 L-158,362 L-158,360 L-159,360 L-159,358 L-160,358 L-160,356 L-161,356 L-161,355 L-162,355 L-162,354 L-163,354 L-163,350 L-164,350 L-164,347 L-165,347 L-165,346 L-166,346 L-166,343 L-167,343 L-167,342 L-168,342 L-168,341 L-169,341 L-169,340 L-170,340 L-170,338 L-171,338 L-171,336 L-172,336 L-172,334 L-173,334 L-173,332 L-175,332 L-175,330 L-176,330 L-176,328 L-177,328 L-177,324 L-178,324 L-178,323 L-179,323 L-179,322 L-180,322 L-180,320 L-181,320 L-181,318 L-182,318 L-182,317 L-183,317 L-183,315 L-184,315 L-184,311 L-185,311 L-185,310 L-186,310 L-186,309 L-187,309 L-187,308 L-188,308 L-188,302 L-190,302 L-190,299 L-191,299 L-191,298 L-192,298 L-192,297 L-193,297 L-193,296 L-194,296 L-194,294 L-195,294 L-195,291 L-196,291 L-196,290 L-197,290 L-197,289 L-198,289 L-198,286 L-200,286 L-200,282 L-201,282 L-201,281 L-202,281 L-202,280 L-203,280 L-203,278 L-204,278 L-204,276 L-205,276 L-205,273 L-206,273 L-206,272 L-207,272 L-207,270 L-208,270 L-208,268 L-209,268 L-209,267 L-210,267 L-210,266 L-211,266 L-211,264 L-212,264 L-212,261 L-213,261 L-213,260 L-214,260 L-214,257 L-215,257 L-215,255 L-216,255 L-216,254 L-217,254 L-217,252 L-218,252 L-218,249 L-219,249 L-219,248 L-221,248 L-221,244 L-222,244 L-222,243 L-224,243 L-224,241 L-225,241 L-225,240 L-226,240 L-226,238 L-227,238 L-227,236 L-228,236 L-228,235 L-229,235 L-229,234 L-230,234 L-230,230 L-231,230 L-231,227 L-232,227 L-232,225 L-233,225 L-233,224 L-234,224 L-234,222 L-235,222 L-235,219 L-236,219 L-236,218 L-237,218 L-237,216 L-239,216 L-239,214 L-240,214 L-240,211 L-241,211 L-241,209 L-242,209 L-242,208 L-243,208 L-243,206 L-244,206 L-244,204 L-245,204 L-245,203 L-246,203 L-246,200 L-247,200 L-247,198 L-248,198 L-248,196 L-250,196 L-250,194 L-251,194 L-251,192 L-252,192 L-252,190 L-253,190 L-253,188 L-254,188 L-254,187 L-255,187 L-255,186 L-256,186 L-256,184 L-257,184 L-257,182 L-258,182 L-258,179 L-259,179 L-259,178 L-260,178 L-260,176 L-261,176 L-261,174 L-262,174 L-262,173 L-263,173 L-263,169 L-264,169 L-264,168 L-265,168 L-265,166 L-266,166 L-266,164 L-267,164 L-267,162 L-268,162 L-268,161 L-269,161 L-269,160 L-270,160 L-270,158 L-271,158 L-271,157 L-272,157 L-272,156 L-273,156 L-273,155 L-274,155 L-274,153 L-275,153 L-275,150 L-276,150 L-276,149 L-277,149 L-277,148 L-278,148 L-278,144 L-279,144 L-279,142 L-280,142 L-280,140 L-281,140 L-281,139 L-282,139 L-282,138 L-283,138 L-283,136 L-284,136 L-284,134 L-285,134 L-285,132 L-286,132 L-286,128 L-288,128 L-288,126 L-289,126 L-289,125 L-290,125 L-290,124 L-291,124 L-291,122 L-292,122 L-292,120 L-293,120 L-293,118 L-294,118 L-294,115 L-295,115 L-295,114 L-296,114 L-296,112 L-297,112 L-297,110 L-298,110 L-298,108 L-299,108 L-299,106 L-300,106 L-300,104 L-301,104 L-301,102 L-303,102 L-303,100 L-304,100 L-304,98 L-306,98 L-306,94 L-307,94 L-307,93 L-308,93 L-308,88 L-310,88 L-310,85 L-311,85 L-311,84 L-312,84 L-312,83 L-313,83 L-313,81 L-314,81 L-314,80 L-315,80 L-315,77 L-316,77 L-316,76 L-317,76 L-317,73 L-318,73 L-318,70 L-320,70 L-320,69 L-321,69 L-321,68 L-322,68 L-322,66 L-323,66 L-323,64 L-324,64 L-324,62 L-325,62 L-325,60 L-326,60 L-326,57 L-327,57 L-327,56 L-328,56 L-328,54 L-329,54 L-329,51 L-330,51 L-330,50 L-331,50 L-331,48 L-332,48 L-332,47 L-333,47 L-333,45 L-334,45 L-334,42 L-336,42 L-336,40 L-337,40 L-337,38 L-338,38 L-338,36 L-339,36 L-339,33 L-340,33 L-340,27 L-341,27 L-341,16 L-340,16 L-340,12 L-339,12 L-339,10 L-338,10 L-338,9 L-337,9 L-337,8 L-335,8 L-335,7 L-334,7 L-334,5 L-332,5 L-332,4 L-328,4 L-328,3 L-219,3 L-219,4 L-214,4 L-214,5 L-212,5 L-212,6 L-210,6 L-210,7 L-208,7 L-208,8 L-207,8 L-207,9 L-206,9 L-206,10 L-204,10 L-204,12 L-203,12 L-203,13 L-202,13 L-202,14 L-201,14 L-201,16 L-200,16 L-200,17 L-199,17 L-199,20 L-198,20 L-198,23 L-196,23 L-196,26 L-195,26 L-195,27 L-194,27 L-194,30 L-193,30 L-193,32 L-192,32 L-192,33 L-191,33 L-191,36 L-190,36 L-190,37 L-189,37 L-189,38 L-188,38 L-188,41 L-187,41 L-187,42 L-186,42 L-186,44 L-185,44 L-185,46 L-183,46 L-183,49 L-182,49 L-182,52 L-181,52 L-181,54 L-180,54 L-180,56 L-179,56 L-179,58 L-178,58 L-178,61 L-177,61 L-177,62 L-175,62 L-175,63 L-174,63 L-174,64 L-173,64 L-173,66 L-172,66 L-172,68 L-171,68 L-171,70 L-170,70 L-170,72 L-169,72 L-169,74 L-168,74 L-168,75 L-167,75 L-167,76 L-166,76 L-166,80 L-165,80 L-165,81 L-164,81 L-164,83 L-163,83 L-163,86 L-161,86 L-161,89 L-160,89 L-160,90 L-159,90 L-159,94 L-157,94 L-157,95 L-156,95 L-156,97 L-155,97 L-155,99 L-154,99 L-154,102 L-152,102 L-152,104 L-151,104 L-151,106 L-150,106 L-150,110 L-149,110 L-149,112 L-148,112 L-148,113 L-147,113 L-147,114 L-146,114 L-146,116 L-145,116 L-145,118 L-144,118 L-144,120 L-143,120 L-143,121 L-142,121 L-142,122 L-141,122 L-141,123 L-140,123 L-140,128 L-138,128 L-138,130 L-137,130 L-137,132 L-136,132 L-136,134 L-134,134 L-134,138 L-133,138 L-133,139 L-132,139 L-132,140 L-131,140 L-131,144 L-129,144 L-129,146 L-128,146 L-128,147 L-127,147 L-127,150 L-126,150 L-126,152 L-125,152 L-125,154 L-124,154 L-124,156 L-122,156 L-122,158 L-121,158 L-121,160 L-120,160 L-120,163 L-119,163 L-119,166 L-117,166 L-117,168 L-116,168 L-116,170 L-115,170 L-115,172 L-114,172 L-114,173 L-113,173 L-113,174 L-112,174 L-112,175 L-111,175 L-111,179 L-110,179 L-110,180 L-109,180 L-109,182 L-108,182 L-108,184 L-107,184 L-107,186 L-106,186 L-106,187 L-105,187 L-105,189 L-104,189 L-104,190 L-103,190 L-103,192 L-102,192 L-102,193 L-101,193 L-101,194 L-100,194 L-100,196 L-99,196 L-99,197 L-98,197 L-98,200 L-97,200 L-97,204 L-95,204 L-95,206 L-94,206 L-94,208 L-92,208 L-92,211 L-91,211 L-91,212 L-90,212 L-90,214 L-89,214 L-89,216 L-88,216 L-88,217 L-87,217 L-87,219 L-86,219 L-86,224 L-85,224 L-85,225 L-84,225 L-84,226 L-83,226 L-83,228 L-82,228 L-82,229 L-81,229 L-81,231 L-80,231 L-80,232 L-79,232 L-79,235 L-78,235 L-78,238 L-76,238 L-76,240 L-75,240 L-75,241 L-74,241 L-74,242 L-73,242 L-73,244 L-72,244 L-72,246 L-71,246 L-71,248 L-70,248 L-70,250 L-69,250 L-69,252 L-68,252 L-68,254 L-67,254 L-67,256 L-66,256 L-66,257 L-65,257 L-65,260 L-64,260 L-64,262 L-63,262 L-63,264 L-62,264 L-62,266 L-61,266 L-61,267 L-60,267 L-60,269 L-59,269 L-59,271 L-58,271 L-58,272 L-57,272 L-57,274 L-56,274 L-56,275 L-53,275 L-53,274 L-52,274 L-52,272 L-51,272 L-51,270 L-50,270 L-50,269 L-49,269 L-49,266 L-48,266 L-48,264 L-47,264 L-47,263 L-46,263 L-46,260 L-45,260 L-45,257 L-44,257 L-44,256 L-43,256 L-43,254 L-42,254 L-42,252 L-41,252 L-41,250 L-40,250 L-40,249 L-39,249 L-39,248 L-38,248 L-38,244 L-37,244 L-37,243 L-36,243 L-36,242 L-35,242 L-35,240 L-33,240 L-33,238 L-32,238 L-32,237 L-31,237 L-31,235 L-30,235 L-30,232 L-29,232 L-29,230 L-28,230 L-28,228 L-27,228 L-27,225 L-26,225 L-26,224 L-25,224 L-25,222 L-24,222 L-24,220 L-23,220 L-23,219 L-22,219 L-22,218 L-21,218 L-21,216 L-20,216 L-20,214 L-19,214 L-19,212 L-18,212 L-18,211 L-17,211 L-17,208 L-16,208 L-16,207 L-15,207 L-15,206 L-14,206 L-14,203 L-13,203 L-13,202 L-12,202 L-12,200 L-11,200 L-11,198 L-10,198 L-10,196 L-8,196 L-8,194 L-7,194 L-7,192 L-6,192 L-6,190 L-5,190 L-5,189 L-4,189 L-4,188 L-3,188 L-3,184 L-1,184 L-1,182 L0,182 L0,178 L1,178 L1,177 L2,177 L2,176 L3,176 L3,174 L4,174 L4,173 L5,173 L5,171 L6,171 L6,170 L7,170 L7,166 L8,166 L8,164 L9,164 L9,162 L10,162 L10,161 L11,161 L11,160 L12,160 L12,158 L13,158 L13,156 L14,156 L14,154 L15,154 L15,152 L17,152 L17,150 L18,150 L18,149 L19,149 L19,145 L20,145 L20,144 L21,144 L21,142 L22,142 L22,140 L23,140 L23,138 L24,138 L24,137 L25,137 L25,136 L26,136 L26,132 L27,132 L27,131 L28,131 L28,130 L29,130 L29,129 L30,129 L30,128 L31,128 L31,126 L32,126 L32,124 L33,124 L33,123 L34,123 L34,119 L35,119 L35,118 L36,118 L36,114 L37,114 L37,113 L38,113 L38,112 L39,112 L39,110 L41,110 L41,108 L42,108 L42,105 L44,105 L44,104 L45,104 L45,101 L46,101 L46,99 L47,99 L47,97 L48,97 L48,95 L49,95 L49,94 L50,94 L50,90 L51,90 L51,89 L52,89 L52,88 L53,88 L53,84 L54,84 L54,83 L55,83 L55,82 L56,82 L56,79 L57,79 L57,78 L58,78 L58,76 L59,76 L59,75 L60,75 L60,72 L61,72 L61,71 L62,71 L62,70 L63,70 L63,68 L64,68 L64,65 L65,65 L65,64 L68,64 L68,60 L69,60 L69,59 L70,59 L70,56 L71,56 L71,54 L72,54 L72,52 L74,52 L74,48 L24,48 L24,51 L23,51 L23,52 L21,52 L21,54 L20,54 L20,56 L19,56 L19,58 L18,58 L18,61 L17,61 L17,62 L16,62 L16,64 L15,64 L15,65 L14,65 L14,67 L13,67 L13,68 L12,68 L12,70 L11,70 L11,72 L10,72 L10,75 L9,75 L9,76 L7,76 L7,80 L6,80 L6,81 L5,81 L5,83 L4,83 L4,85 L3,85 L3,86 L2,86 L2,88 L1,88 L1,89 L0,89 L0,92 L-1,92 L-1,94 L-3,94 L-3,97 L-4,97 L-4,99 L-5,99 L-5,102 L-7,102 L-7,104 L-8,104 L-8,106 L-9,106 L-9,108 L-10,108 L-10,110 L-11,110 L-11,112 L-12,112 L-12,114 L-13,114 L-13,115 L-14,115 L-14,116 L-15,116 L-15,118 L-16,118 L-16,120 L-17,120 L-17,121 L-18,121 L-18,124 L-19,124 L-19,126 L-21,126 L-21,128 L-22,128 L-22,129 L-23,129 L-23,133 L-24,133 L-24,136 L-26,136 L-26,138 L-28,138 L-28,142 L-30,142 L-30,144 L-31,144 L-31,145 L-32,145 L-32,148 L-33,148 L-33,150 L-34,150 L-34,152 L-35,152 L-35,154 L-36,154 L-36,156 L-37,156 L-37,158 L-38,158 L-38,160 L-39,160 L-39,161 L-40,161 L-40,163 L-41,163 L-41,164 L-42,164 L-42,166 L-43,166 L-43,168 L-44,168 L-44,170 L-46,170 L-46,172 L-47,172 L-47,174 L-48,174 L-48,176 L-49,176 L-49,177 L-50,177 L-50,180 L-51,180 L-51,182 L-52,182 L-52,184 L-54,184 L-54,186 L-57,186 L-57,184 L-58,184 L-58,182 L-59,182 L-59,180 L-60,180 L-60,179 L-61,179 L-61,178 L-62,178 L-62,176 L-63,176 L-63,174 L-64,174 L-64,172 L-65,172 L-65,169 L-66,169 L-66,168 L-67,168 L-67,166 L-69,166 L-69,164 L-70,164 L-70,162 L-71,162 L-71,160 L-72,160 L-72,158 L-73,158 L-73,157 L-74,157 L-74,156 L-75,156 L-75,152 L-76,152 L-76,150 L-77,150 L-77,149 L-78,149 L-78,147 L-79,147 L-79,145 L-80,145 L-80,144 L-81,144 L-81,142 L-82,142 L-82,139 L-81,139 L-81,136 L-80,136 L-80,135 L-79,135 L-79,134 L-77,134 L-77,133 L-76,133 L-76,130 L-75,130 L-75,126 L-74,126 L-74,124 L-73,124 L-73,123 L-72,123 L-72,121 L-71,121 L-71,120 L-70,120 L-70,118 L-69,118 L-69,116 L-68,116 L-68,114 L-67,114 L-67,112 L-65,112 L-65,110 L-64,110 L-64,109 L-63,109 L-63,105 L-62,105 L-62,102 L-60,102 L-60,99 L-59,99 L-59,98 L-58,98 L-58,96 L-57,96 L-57,94 L-55,94 L-55,93 L-54,93 L-54,89 L-53,89 L-53,86 L-52,86 L-52,85 L-51,85 L-51,84 L-50,84 L-50,83 L-49,83 L-49,80 L-48,80 L-48,78 L-47,78 L-47,76 L-46,76 L-46,72 L-45,72 L-45,70 L-43,70 L-43,68 L-42,68 L-42,66 L-41,66 L-41,64 L-40,64 L-40,62 L-39,62 L-39,60 L-38,60 L-38,58 L-37,58 L-37,56 L-35,56 L-35,54 L-34,54 L-34,52 L-33,52 L-33,51 L-32,51 L-32,50 L-31,50 L-31,46 L-30,46 L-30,44 L-29,44 L-29,43 L-28,43 L-28,41 L-27,41 L-27,40 L-26,40 L-26,38 L-24,38 L-24,35 L-23,35 L-23,34 L-22,34 L-22,31 L-21,31 L-21,30 L-20,30 L-20,28 L-19,28 L-19,26 L-18,26 L-18,25 L-17,25 L-17,24 L-16,24 L-16,20 L-15,20 L-15,19 L-14,19 L-14,16 L-12,16 L-12,14 L-11,14 L-11,12 L-10,12 L-10,11 L-9,11 L-9,10 L-8,10 L-8,9 L-7,9 L-7,8 L-6,8 L-6,6 L-5,6 L-5,5 L-4,5 L-4,4 L-3,4 L-3,3 L-2,3 L-2,2 L-1,2 L-1,1 L0,1 Z " transform="translate(430,122)" style="fill: #E5B511;"/></svg>